<svg width="1440" height="121" viewBox="0 0 1440 121" fill="none" xmlns="http://www.w3.org/2000/svg">
<path d="M1415.17 25.1531L1440 -0.0001297L1440 121L0 121L-6.18024e-06 50.3064L24.8276 25.1531C38.4869 11.3148 60.8236 11.3148 74.4828 25.1532C88.1421 38.9916 110.479 38.9916 124.138 25.1532C137.797 11.3148 160.134 11.3148 173.793 25.1532C187.452 38.9916 209.789 38.9916 223.448 25.1532C237.108 11.3148 259.444 11.3148 273.104 25.1532C286.763 38.9916 309.099 38.9915 322.759 25.1532C336.418 11.3148 358.755 11.3148 372.414 25.1532C386.073 38.9915 408.41 38.9916 422.069 25.1532C435.728 11.3148 458.065 11.3148 471.724 25.1532C485.383 38.9915 507.72 38.9915 521.379 25.1531C535.039 11.3148 557.375 11.3148 571.035 25.1531C584.694 38.9915 607.03 38.9915 620.69 25.1531C634.349 11.3148 656.686 11.3148 670.345 25.1531C684.004 38.9915 706.341 38.9915 720 25.1531C733.659 11.3148 755.996 11.3147 769.655 25.1531C783.314 38.9915 805.651 38.9915 819.31 25.1531C832.97 11.3147 855.306 11.3147 868.966 25.1531C882.625 38.9915 904.961 38.9915 918.621 25.1531C932.28 11.3147 954.617 11.3147 968.276 25.1531C981.935 38.9915 1004.27 38.9915 1017.93 25.1531C1031.59 11.3147 1053.93 11.3147 1067.59 25.1531C1081.25 38.9915 1103.58 38.9915 1117.24 25.1531C1130.9 11.3147 1153.24 11.3147 1166.9 25.1531C1180.56 38.9915 1202.89 38.9915 1216.55 25.1531C1230.21 11.3147 1252.55 11.3147 1266.21 25.1531C1279.87 38.9915 1302.2 38.9915 1315.86 25.1531C1329.52 11.3147 1351.86 11.3147 1365.52 25.1531C1379.18 38.9915 1401.51 38.9915 1415.17 25.1531Z" fill="#6D398C"/>
</svg>
